<?xml version="1.0" encoding="utf-8"?>
<!-- Generator: Adobe Illustrator 16.0.0, SVG Export Plug-In . SVG Version: 6.00 Build 0)  -->
<!DOCTYPE svg PUBLIC "-//W3C//DTD SVG 1.1//EN" "http://www.w3.org/Graphics/SVG/1.1/DTD/svg11.dtd">
<svg version="1.1" id="Layer_1" xmlns="http://www.w3.org/2000/svg" xmlns:xlink="http://www.w3.org/1999/xlink" x="0px" y="0px"
	 width="32px" height="32px" viewBox="0 0 32 32" enable-background="new 0 0 32 32" xml:space="preserve">
<g>
	<defs>
		<rect id="SVGID_1_" width="32" height="32"/>
	</defs>
	<clipPath id="SVGID_2_">
		<use xlink:href="#SVGID_1_"  overflow="visible"/>
	</clipPath>
	<path clip-path="url(#SVGID_2_)" fill="#FFFFFF" d="M22.249,11.617c-0.146-0.374-0.318-0.64-0.599-0.921
		c-0.281-0.28-0.548-0.454-0.922-0.599c-0.282-0.11-0.706-0.24-1.487-0.276c-0.845-0.038-1.098-0.046-3.237-0.046
		c-2.139,0-2.393,0.008-3.238,0.046c-0.78,0.036-1.205,0.166-1.487,0.276c-0.374,0.145-0.641,0.319-0.921,0.599
		c-0.28,0.281-0.454,0.547-0.599,0.921c-0.11,0.283-0.241,0.707-0.276,1.488c-0.039,0.845-0.047,1.098-0.047,3.237
		s0.008,2.394,0.047,3.237c0.035,0.781,0.166,1.206,0.276,1.488c0.145,0.373,0.319,0.641,0.599,0.921
		c0.28,0.279,0.547,0.454,0.921,0.599c0.282,0.11,0.707,0.24,1.487,0.276c0.845,0.039,1.099,0.047,3.238,0.047
		c2.14,0,2.393-0.008,3.237-0.047c0.781-0.036,1.205-0.166,1.487-0.276c0.374-0.145,0.641-0.319,0.922-0.599
		c0.28-0.28,0.453-0.548,0.599-0.921c0.11-0.282,0.24-0.707,0.276-1.488c0.038-0.844,0.046-1.099,0.046-3.237
		s-0.008-2.392-0.046-3.237C22.489,12.324,22.359,11.9,22.249,11.617 M15.982,20.456c-2.271-0.012-4.103-1.863-4.092-4.135
		c0.012-2.272,1.863-4.104,4.135-4.092c2.271,0.011,4.104,1.862,4.093,4.134C20.106,18.635,18.255,20.467,15.982,20.456
		 M20.28,13.027c-0.53,0-0.961-0.43-0.961-0.961c0-0.531,0.431-0.961,0.961-0.961c0.531,0,0.962,0.43,0.962,0.961
		C21.242,12.597,20.812,13.027,20.28,13.027"/>
	<path clip-path="url(#SVGID_2_)" fill="#FFFFFF" d="M16.018,13.672c-1.475-0.008-2.676,1.182-2.684,2.656
		c-0.007,1.475,1.182,2.677,2.657,2.684c1.474,0.008,2.676-1.181,2.684-2.656C18.682,14.881,17.492,13.679,16.018,13.672"/>
	<path clip-path="url(#SVGID_2_)" fill="#FFFFFF" d="M16,0C7.163,0,0,7.163,0,16s7.163,16,16,16c8.837,0,16-7.163,16-16
		S24.837,0,16,0 M23.967,19.645c-0.039,0.854-0.174,1.436-0.372,1.945c-0.205,0.526-0.479,0.974-0.924,1.419
		s-0.893,0.719-1.419,0.924c-0.51,0.197-1.092,0.333-1.945,0.372c-0.854,0.039-1.127,0.048-3.303,0.048
		c-2.176,0-2.448-0.009-3.303-0.048c-0.852-0.039-1.435-0.175-1.944-0.372c-0.527-0.205-0.974-0.479-1.419-0.924
		c-0.445-0.445-0.72-0.893-0.924-1.419c-0.198-0.51-0.334-1.092-0.373-1.945c-0.039-0.854-0.048-1.127-0.048-3.303
		s0.009-2.448,0.048-3.303c0.039-0.852,0.175-1.435,0.373-1.945c0.204-0.526,0.479-0.973,0.924-1.419
		c0.445-0.445,0.892-0.719,1.419-0.924c0.509-0.197,1.092-0.333,1.944-0.372c0.855-0.039,1.127-0.048,3.303-0.048
		c2.176,0,2.448,0.009,3.303,0.048c0.854,0.039,1.436,0.175,1.945,0.372c0.526,0.205,0.974,0.479,1.419,0.924
		c0.445,0.446,0.719,0.893,0.924,1.419c0.198,0.51,0.333,1.093,0.372,1.945c0.039,0.855,0.049,1.127,0.049,3.303
		S24.006,18.791,23.967,19.645"/>
</g>
</svg>
